<?xml version="1.0" standalone="no"?><!DOCTYPE svg PUBLIC "-//W3C//DTD SVG 1.1//EN" "http://www.w3.org/Graphics/SVG/1.1/DTD/svg11.dtd"><svg t="1590381211061" class="icon" viewBox="0 0 1024 1024" version="1.1" xmlns="http://www.w3.org/2000/svg" p-id="2075" xmlns:xlink="http://www.w3.org/1999/xlink" width="200" height="200"><defs><style type="text/css"></style></defs><path d="M829.834 587.506c24.882 0 47.189 15.443 47.189 37.754 0 18.876-22.308 36.038-47.189 36.038H566.42V877.52c0 18.876-18.02 41.184-47.189 41.184-26.599 0-48.909-22.308-48.909-41.184V661.298H218.063c-24.882 0-45.476-17.163-45.476-37.754s20.592-36.038 45.476-36.038H471.18V475.104H218.063c-24.882 0-45.476-14.586-45.476-37.754 0-18.876 20.592-35.178 45.476-35.178h217.938L260.108 166.216c-8.579-18.876-2.572-47.189 18.876-57.486 23.169-11.155 47.189-0.857 59.203 14.586l182.759 246.253 186.192-228.234c12.014-17.163 37.754-39.47 68.643-21.451 32.605 19.733 12.014 58.347 12.014 58.347L605.036 401.319h214.506c24.882 0 47.189 15.443 47.189 36.896s-22.308 36.038-47.189 36.038H566.425v112.402l263.414 0.857z" p-id="2076"></path></svg>