<?xml version="1.0" standalone="no"?><!DOCTYPE svg PUBLIC "-//W3C//DTD SVG 1.1//EN" "http://www.w3.org/Graphics/SVG/1.1/DTD/svg11.dtd"><svg t="1590381109419" class="icon" viewBox="0 0 1024 1024" version="1.1" xmlns="http://www.w3.org/2000/svg" p-id="1315" xmlns:xlink="http://www.w3.org/1999/xlink" width="200" height="200"><defs><style type="text/css"></style></defs><path d="M412.718 910.868c-18.242 0-35.999-7.705-49.986-21.688L124.897 651.346c-28.6-28.6-28.605-68.552-0.01-97.152l361.754-361.708c20.326-20.3 54.6-32.916 89.461-32.916h220.222c43.3 0 66.191 22.891 66.191 66.191v220.222c0 27.315-10.767 54.354-28.79 72.386L462.884 889.175c-13.993 13.993-31.81 21.693-50.166 21.693z m163.39-699.043c-20.86 0-41.954 7.08-52.486 17.607L161.838 591.14c-5.75 5.75-10.24 13.01 0.01 23.26l237.83 237.83c2.913 2.912 7.546 6.389 13.04 6.389 5.642 0 10.302-3.477 13.215-6.39l370.841-370.775c8.198-8.182 13.492-22.108 13.492-35.471V225.766c0-9.323-1.618-12.15-1.782-12.4-0.056-0.01-2.663-1.541-12.16-1.541H576.108z"  p-id="1316"></path><path d="M585.359 390.426a45.097 45.097 0 1 0 90.194 0 45.097 45.097 0 1 0-90.194 0z"  p-id="1317"></path></svg>